#!OML:ASF X:\für Bonn\!DataBase\2005_08_12_Daniel\c3d\Daniel.ASF
:FULLY-SPECIFIED
:DEGREES
1
root 1.92904 17.4337 -27.0403 169.596 181.147 -184.6
lowerback 17.2163 -1.62448 8.57897
upperback 6.19585 -0.769453 -0.799093
thorax -3.08196 -0.306387 -5.57077
lowerneck 5.37267 2.22562 -4.1816
upperneck 24.1441 3.05321 0.2105
head 6.42238 1.12329 0.891222
rclavicle 2.05742e-014 2.78299e-015
rhumerus -25.9633 -15.3203 -78.7359
rradius 20.273
rwrist 24.4721
rhand -20.2119 18.3746
rfingers 7.12502
rthumb 6.13527 -11.5165
lclavicle 2.05742e-014 2.78299e-015
lhumerus -31.4095 23.7041 78.6209
lradius 28.0734
lwrist -21.9776
lhand -9.75118 -8.15937
lfingers 7.12502
lthumb 16.2232 21.1818
rfemur 10.1051 5.6917 29.5791
rtibia 22.8493
rfoot -21.0579 -1.96591
rtoes -6.59584
lfemur -22.3378 -3.03236 -12.6513
ltibia 52.6685
lfoot -12.7176 -4.28133
ltoes -6.24003
2
root 1.936 17.4476 -26.91 169.646 181.165 -184.709
lowerback 17.0141 -1.56403 8.63766
upperback 6.166 -0.697954 -0.778719
thorax -2.99574 -0.267955 -5.59662
lowerneck 5.48193 2.19464 -4.13608
upperneck 24.1437 3.02208 0.128016
head 6.40727 1.10734 0.854448
rclavicle -7.60351e-015 -1.19271e-015
rhumerus -25.3544 -15.5823 -78.7085
rradius 20.1154
rwrist 24.9106
rhand -20.123 18.4881
rfingers 7.12502
rthumb 6.22111 -11.4005
lclavicle -7.60351e-015 -1.19271e-015
lhumerus -31.3743 23.7717 78.531
lradius 28.0512
lwrist -21.9066
lhand -9.9907 -8.19855
lfingers 7.12502
lthumb 15.9926 21.1613
rfemur 11.4151 5.75248 29.7622
rtibia 21.2819
rfoot -20.7546 -2.18725
rtoes -6.75706
lfemur -22.3378 -3.66724 -12.4801
ltibia 50.4282
lfoot -12.8143 -3.84494
ltoes -7.50279
3
root 1.94222 17.4647 -26.7797 169.702 181.161 -184.803
lowerback 16.795 -1.50788 8.68993
upperback 6.14905 -0.636691 -0.786364
thorax -2.88831 -0.232953 -5.64663
lowerneck 5.59065 2.16905 -4.05796
upperneck 24.1243 2.99138 0.0784378
head 6.38552 1.0969 0.822607
rclavicle -4.82053e-015 2.5842e-014
rhumerus -24.7585 -15.8692 -78.7246
rradius 19.9838
rwrist 25.3635
rhand -20.0572 18.5546
rfingers 7.12502
rthumb 6.28462 -11.3321
lclavicle -4.82053e-015 2.5842e-014
lhumerus -31.3384 23.7492 78.417
lradius 28.0478
lwrist -21.8163
lhand -10.1996 -8.19395
lfingers 7.12502
lthumb 15.7914 21.1819
rfemur 12.8584 5.84987 29.9495
rtibia 19.4589
rfoot -20.3773 -2.45651
rtoes -6.85331
lfemur -22.3616 -4.41291 -12.2968
ltibia 48.1954
lfoot -13.0455 -3.33716
ltoes -8.66924
4
root 1.94948 17.4829 -26.6492 169.754 181.192 -184.928
lowerback 16.6046 -1.44727 8.77158
upperback 6.11933 -0.561042 -0.774145
thorax -2.8069 -0.19226 -5.69442
lowerneck 5.72037 2.14228 -3.99271
upperneck 24.1156 2.96192 0.0108064
head 6.3641 1.08467 0.787047
rclavicle -5.06901e-015 -2.98177e-014
rhumerus -24.168 -16.0987 -78.7392
rradius 19.8174
rwrist 25.8048
rhand -20.0574 18.6135
rfingers 7.12502
rthumb 6.28443 -11.2733
lclavicle -5.06901e-015 -2.98177e-014
lhumerus -31.3783 23.7357 78.3155
lradius 28.0645
lwrist -21.7419
lhand -10.4295 -8.21318
lfingers 7.12502
lthumb 15.57 21.1801
rfemur 14.4601 5.93462 30.1588
rtibia 17.3444
rfoot -19.8527 -2.71754
rtoes -6.97345
lfemur -22.3725 -5.21212 -12.0471
ltibia 45.9812
lfoot -13.2154 -2.71008
ltoes -9.6095
5
root 1.9578 17.5002 -26.5191 169.827 181.222 -185.018
lowerback 16.4009 -1.38089 8.83025
upperback 6.08412 -0.483696 -0.784542
thorax -2.72395 -0.150787 -5.75335
lowerneck 5.81853 2.11201 -3.91541
upperneck 24.124 2.92809 -0.0475288
head 6.35341 1.07156 0.752908
rclavicle -5.56597e-015 -7.15625e-015
rhumerus -23.598 -16.2444 -78.789
rradius 19.6578
rwrist 26.1787
rhand -20.1055 18.652
rfingers 7.12502
rthumb 6.23796 -11.2361
lclavicle -5.56597e-015 -7.15625e-015
lhumerus -31.461 23.6688 78.192
lradius 28.115
lwrist -21.5665
lhand -10.6434 -8.24285
lfingers 7.12502
lthumb 15.364 21.1663
rfemur 16.1922 6.02749 30.3305
rtibia 14.9331
rfoot -19.1969 -3.01805
rtoes -7.06792
lfemur -22.43 -6.11872 -11.7829
ltibia 43.7995
lfoot -13.2366 -1.99111
ltoes -10.1695
6
root 1.96708 17.513 -26.3886 169.876 181.261 -185.143
lowerback 16.201 -1.32409 8.90524
upperback 6.07287 -0.416374 -0.771361
thorax -2.6184 -0.112433 -5.79389
lowerneck 5.89482 2.08982 -3.85929
upperneck 24.1284 2.9079 -0.114476
head 6.34466 1.0626 0.720295
rclavicle -1.8487e-014 -4.37326e-015
rhumerus -22.9679 -16.5212 -78.8115
rradius 19.4423
rwrist 26.6653
rhand -20.1534 18.6682
rfingers 7.12502
rthumb 6.1917 -11.2213
lclavicle -1.8487e-014 -4.37326e-015
lhumerus -31.5065 23.68 78.0786
lradius 28.1182
lwrist -21.4565
lhand -10.8094 -8.21896
lfingers 7.12502
lthumb 15.2041 21.2024
rfemur 18.1282 6.05797 30.516
rtibia 12.1923
rfoot -18.4227 -3.27619
rtoes -7.3439
lfemur -22.448 -7.12446 -11.434
ltibia 41.6596
lfoot -13.2761 -1.18955
ltoes -10.4557
7
root 1.97704 17.5202 -26.2601 169.953 181.304 -185.254
lowerback 16.0225 -1.26511 8.97027
upperback 6.03094 -0.344703 -0.763326
thorax -2.55619 -0.07495 -5.83486
lowerneck 5.96992 2.06931 -3.82656
upperneck 24.1352 2.88472 -0.152204
head 6.33612 1.05215 0.70099
rclavicle -2.32081e-014 9.54166e-015
rhumerus -22.3734 -16.5275 -78.8902
rradius 19.2315
rwrist 26.947
rhand -20.2621 18.5717
rfingers 7.12502
rthumb 6.08678 -11.3208
lclavicle -2.32081e-014 9.54166e-015
lhumerus -31.6203 23.6454 77.9574
lradius 28.1289
lwrist -21.3063
lhand -10.9288 -8.27835
lfingers 7.12502
lthumb 15.0891 21.1517
rfemur 20.2496 5.83357 30.5845
rtibia 9.02253
rfoot -17.4281 -3.28808
rtoes -7.53903
lfemur -22.5164 -8.24802 -11.046
ltibia 39.5693
lfoot -13.2858 -0.233785
ltoes -10.0904
8
root 1.98812 17.5211 -26.1309 170.017 181.374 -185.396
lowerback 15.8422 -1.20525 9.0684
upperback 6.00885 -0.268175 -0.752143
thorax -2.47026 -0.0329236 -5.89178
lowerneck 5.99151 2.05086 -3.79499
upperneck 24.1755 2.86172 -0.158393
head 6.34658 1.04291 0.693019
rclavicle 1.63997e-014 1.70955e-014
rhumerus -21.7493 -16.5135 -79.0121
rradius 19.0144
rwrist 27.2008
rhand -20.3843 18.4472
rfingers 7.12502
rthumb 5.96878 -11.4487
lclavicle 1.63997e-014 1.70955e-014
lhumerus -31.7007 23.6026 77.8451
lradius 28.1319
lwrist -21.1267
lhand -11.0097 -8.25187
lfingers 7.12502
lthumb 15.0112 21.184
rfemur 22.9935 5.63625 30.6619
rtibia 4.72693
rfoot -15.9379 -3.38352
rtoes -7.69562
lfemur -22.5686 -9.44458 -10.569
ltibia 37.5567
lfoot -13.3706 0.846777
ltoes -9.63155
9
root 1.9997 17.5136 -26.0022 170.107 181.43 -185.525
lowerback 15.6735 -1.14201 9.15105
upperback 5.95208 -0.187363 -0.750853
thorax -2.42686 0.00802686 -5.9511
lowerneck 6.03097 2.01742 -3.70301
upperneck 24.2298 2.8293 -0.224834
head 6.36064 1.0301 0.655012
rclavicle 2.25621e-014 -2.38542e-015
rhumerus -21.1809 -16.5073 -79.1249
rradius 18.7708
rwrist 27.4559
rhand -20.5439 18.2587
rfingers 7.12502
rthumb 5.81469 -11.6415
lclavicle 2.25621e-014 -2.38542e-015
lhumerus -31.825 23.5539 77.6904
lradius 28.1054
lwrist -21.0077
lhand -11.0394 -8.19175
lfingers 7.12502
lthumb 14.9825 21.2463
rfemur 25.9481 5.44399 30.6918
rtibia -6.36111e-014
rfoot -14.2757 -3.48983
rtoes -7.91485
lfemur -22.6763 -10.6903 -10.0696
ltibia 35.6554
lfoot -13.6221 2.05201
ltoes -9.33833
10
root 2.01235 17.5018 -25.8739 170.159 181.5 -185.67
lowerback 15.544 -1.0915 9.2482
upperback 5.92338 -0.1185 -0.743583
thorax -2.37565 0.0445235 -6.00998
lowerneck 6.0096 2.00201 -3.67211
upperneck 24.2879 2.80962 -0.214244
head 6.38353 1.02298 0.653323
rclavicle 2.28602e-014 -1.63003e-014
rhumerus -20.5833 -16.3504 -79.2926
rradius 18.5348
rwrist 27.6701
rhand -20.7072 17.9924
rfingers 7.12502
rthumb 5.65705 -11.9121
lclavicle 2.28602e-014 -1.63003e-014
lhumerus -31.8974 23.6036 77.5346
lradius 28.0106
lwrist -20.9284
lhand -11.0191 -8.12907
lfingers 7.12502
lthumb 15.0021 21.3075
rfemur 26.3796 5.24862 30.7648
rtibia -4.13472e-014
rfoot -14.7284 -3.20551
rtoes -8.11944
lfemur -22.7826 -12.0247 -9.52064
ltibia 33.9068
lfoot -14.0137 3.43468
ltoes -9.0848
